<svg width="69" height="10" viewBox="0 0 69 10" fill="none" xmlns="http://www.w3.org/2000/svg">
<path d="M4.644 5.648C4.668 5.672 4.684 5.712 4.692 5.768C4.7 5.816 4.704 5.868 4.704 5.924C4.712 5.972 4.716 6.02 4.716 6.068C4.716 6.108 4.716 6.14 4.716 6.164C4.732 6.276 4.728 6.404 4.704 6.548C4.688 6.692 4.648 6.816 4.584 6.92L4.428 7.184C4.364 7.28 4.308 7.348 4.26 7.388C4.22 7.42 4.164 7.48 4.092 7.568C4.06 7.616 4.02 7.66 3.972 7.7C3.924 7.732 3.88 7.768 3.84 7.808L3.6 7.916C3.536 7.948 3.464 7.976 3.384 8C3.312 8.024 3.244 8.036 3.18 8.036C2.98 8.068 2.78 8.1 2.58 8.132C2.38 8.164 2.176 8.18 1.968 8.18C1.904 8.18 1.828 8.18 1.74 8.18C1.652 8.188 1.576 8.192 1.512 8.192C1.448 8.2 1.376 8.188 1.296 8.156C1.224 8.132 1.164 8.12 1.116 8.12L0.756 8.084C0.716 8.076 0.66 8.068 0.588 8.06C0.516 8.052 0.452 8.048 0.396 8.048V7.76C0.404 7.72 0.408 7.68 0.408 7.64C0.408 7.592 0.408 7.544 0.408 7.496C0.4 7.408 0.4 7.324 0.408 7.244C0.416 7.156 0.416 7.068 0.408 6.98C0.4 6.94 0.396 6.9 0.396 6.86C0.396 6.812 0.396 6.768 0.396 6.728C0.404 6.648 0.4 6.568 0.384 6.488C0.368 6.408 0.368 6.328 0.384 6.248C0.416 6.104 0.428 5.96 0.42 5.816C0.412 5.672 0.404 5.516 0.396 5.348C0.388 5.268 0.384 5.192 0.384 5.12C0.384 5.048 0.384 4.976 0.384 4.904L0.396 4.304C0.396 4.256 0.396 4.192 0.396 4.112C0.396 4.032 0.392 3.952 0.384 3.872C0.384 3.784 0.38 3.704 0.372 3.632C0.372 3.56 0.372 3.508 0.372 3.476C0.356 3.404 0.356 3.324 0.372 3.236C0.38 3.18 0.384 3.12 0.384 3.056C0.392 2.992 0.396 2.928 0.396 2.864C0.412 2.736 0.416 2.588 0.408 2.42C0.408 2.244 0.408 2.088 0.408 1.952C0.408 1.856 0.412 1.768 0.42 1.688C0.428 1.608 0.436 1.556 0.444 1.532C0.436 1.42 0.436 1.332 0.444 1.268C0.452 1.204 0.456 1.152 0.456 1.112H1.728C1.888 1.112 2.052 1.124 2.22 1.148C2.388 1.164 2.556 1.18 2.724 1.196C2.796 1.212 2.848 1.228 2.88 1.244C2.936 1.26 2.984 1.272 3.024 1.28C3.064 1.288 3.1 1.3 3.132 1.316C3.172 1.356 3.224 1.396 3.288 1.436C3.352 1.476 3.412 1.516 3.468 1.556C3.532 1.588 3.588 1.628 3.636 1.676C3.692 1.716 3.728 1.76 3.744 1.808C3.76 1.848 3.78 1.892 3.804 1.94C3.836 1.98 3.86 2.02 3.876 2.06C3.9 2.156 3.916 2.284 3.924 2.444C3.94 2.596 3.94 2.752 3.924 2.912C3.908 3.072 3.876 3.224 3.828 3.368C3.788 3.512 3.728 3.624 3.648 3.704C3.56 3.824 3.468 3.924 3.372 4.004C3.284 4.076 3.204 4.132 3.132 4.172C3.092 4.172 3.056 4.184 3.024 4.208C2.992 4.224 2.96 4.232 2.928 4.232C2.992 4.272 3.044 4.296 3.084 4.304C3.124 4.304 3.176 4.324 3.24 4.364C3.256 4.364 3.284 4.372 3.324 4.388C3.364 4.404 3.392 4.412 3.408 4.412C3.472 4.412 3.536 4.432 3.6 4.472C3.672 4.512 3.76 4.556 3.864 4.604C3.888 4.62 3.92 4.644 3.96 4.676C4.008 4.7 4.056 4.732 4.104 4.772C4.152 4.804 4.196 4.836 4.236 4.868C4.276 4.9 4.304 4.928 4.32 4.952C4.384 5.016 4.416 5.06 4.416 5.084C4.416 5.108 4.444 5.156 4.5 5.228C4.548 5.292 4.58 5.356 4.596 5.42C4.612 5.484 4.628 5.56 4.644 5.648ZM1.74 7.22C1.772 7.22 1.82 7.216 1.884 7.208C1.956 7.2 2.024 7.192 2.088 7.184C2.16 7.176 2.224 7.172 2.28 7.172C2.336 7.164 2.364 7.16 2.364 7.16C2.42 7.144 2.472 7.132 2.52 7.124C2.576 7.108 2.628 7.092 2.676 7.076C2.804 7.02 2.892 6.952 2.94 6.872C2.996 6.792 3.052 6.692 3.108 6.572C3.148 6.484 3.172 6.388 3.18 6.284C3.196 6.18 3.2 6.084 3.192 5.996C3.192 5.94 3.192 5.888 3.192 5.84C3.192 5.792 3.188 5.74 3.18 5.684C3.18 5.612 3.168 5.528 3.144 5.432C3.128 5.328 3.088 5.252 3.024 5.204C2.968 5.116 2.864 5.048 2.712 5C2.56 4.944 2.432 4.908 2.328 4.892C2.256 4.892 2.188 4.892 2.124 4.892C2.068 4.884 2.02 4.864 1.98 4.832H1.212C1.22 4.848 1.22 4.884 1.212 4.94C1.212 4.996 1.212 5.032 1.212 5.048C1.212 5.232 1.204 5.42 1.188 5.612C1.172 5.796 1.168 5.964 1.176 6.116L1.2 6.668C1.2 6.684 1.2 6.716 1.2 6.764C1.2 6.812 1.2 6.864 1.2 6.92C1.2 6.976 1.2 7.028 1.2 7.076C1.2 7.116 1.2 7.144 1.2 7.16C1.296 7.176 1.388 7.188 1.476 7.196C1.564 7.204 1.652 7.212 1.74 7.22ZM1.584 3.512C1.616 3.512 1.66 3.496 1.716 3.464C1.78 3.424 1.828 3.372 1.86 3.308C1.9 3.244 1.94 3.164 1.98 3.068C2.02 2.972 2.02 2.876 1.98 2.78C1.98 2.676 1.952 2.572 1.896 2.468C1.84 2.364 1.756 2.292 1.644 2.252C1.612 2.252 1.592 2.252 1.584 2.252C1.576 2.244 1.556 2.24 1.524 2.24C1.492 2.256 1.472 2.26 1.464 2.252C1.456 2.244 1.432 2.24 1.392 2.24H1.32C1.32 2.448 1.312 2.66 1.296 2.876C1.28 3.092 1.288 3.304 1.32 3.512H1.584ZM5.73675 6.632C5.79275 6.472 5.84875 6.316 5.90475 6.164C5.96875 6.004 6.02875 5.844 6.08475 5.684C6.12475 5.564 6.17675 5.444 6.24075 5.324C6.30475 5.204 6.36075 5.096 6.40875 5C6.44875 4.864 6.48875 4.756 6.52875 4.676C6.57675 4.588 6.60475 4.532 6.61275 4.508C6.61275 4.492 6.62875 4.452 6.66075 4.388C6.70075 4.324 6.74475 4.22 6.79275 4.076C6.81675 4.004 6.83675 3.928 6.85275 3.848C6.87675 3.768 6.90475 3.692 6.93675 3.62L7.22475 2.924C7.25675 2.836 7.27675 2.772 7.28475 2.732C7.30075 2.684 7.31275 2.644 7.32075 2.612C7.32875 2.58 7.33675 2.544 7.34475 2.504C7.35275 2.464 7.37675 2.4 7.41675 2.312C7.45675 2.224 7.48875 2.14 7.51275 2.06C7.54475 1.98 7.58075 1.896 7.62075 1.808C7.63675 1.76 7.65275 1.712 7.66875 1.664C7.68475 1.616 7.70075 1.568 7.71675 1.52C7.74075 1.456 7.76075 1.4 7.77675 1.352C7.79275 1.304 7.80875 1.248 7.82475 1.184C7.84075 1.168 7.85275 1.148 7.86075 1.124C7.86875 1.092 7.88475 1.056 7.90875 1.016C7.95675 0.984 7.99675 0.968 8.02875 0.968C8.06075 0.96 8.09275 0.956 8.12475 0.956H8.67675C8.69275 0.988 8.70075 1.02 8.70075 1.052C8.70075 1.076 8.70875 1.104 8.72475 1.136L8.77275 1.316L8.80875 1.412L8.94075 1.784L9.15675 2.396L9.24075 2.552C9.25675 2.568 9.27275 2.604 9.28875 2.66C9.30475 2.708 9.32875 2.772 9.36075 2.852C9.40075 2.956 9.44075 3.076 9.48075 3.212C9.52875 3.34 9.57275 3.468 9.61275 3.596C9.66875 3.796 9.71275 3.944 9.74475 4.04C9.78475 4.136 9.82475 4.236 9.86475 4.34C9.88875 4.372 9.90475 4.408 9.91275 4.448C9.92075 4.488 9.93275 4.528 9.94875 4.568L10.1048 5.06L10.3088 5.492C10.3328 5.564 10.3568 5.636 10.3808 5.708C10.4128 5.772 10.4488 5.836 10.4888 5.9C10.5528 6.06 10.6048 6.208 10.6448 6.344C10.6848 6.472 10.7368 6.616 10.8008 6.776C10.8328 6.848 10.8648 6.916 10.8968 6.98C10.9368 7.044 10.9688 7.112 10.9928 7.184C11.0088 7.224 11.0248 7.264 11.0408 7.304C11.0568 7.344 11.0728 7.384 11.0888 7.424C11.1288 7.496 11.1608 7.572 11.1848 7.652C11.2168 7.724 11.2528 7.804 11.2928 7.892C11.3088 7.94 11.3288 7.988 11.3528 8.036C11.3768 8.084 11.3928 8.128 11.4008 8.168C11.3608 8.168 11.3208 8.164 11.2808 8.156C11.2408 8.148 11.2048 8.144 11.1728 8.144H10.9688C10.8968 8.144 10.8328 8.144 10.7768 8.144C10.7208 8.152 10.6728 8.156 10.6328 8.156C10.5928 8.06 10.5328 7.968 10.4528 7.88C10.3808 7.784 10.3048 7.668 10.2248 7.532C10.2088 7.492 10.1928 7.456 10.1768 7.424C10.1608 7.392 10.1448 7.36 10.1288 7.328C10.1128 7.28 10.0648 7.212 9.98475 7.124C9.91275 7.036 9.87275 6.968 9.86475 6.92C9.80075 6.848 9.75275 6.792 9.72075 6.752C9.69675 6.704 9.66475 6.66 9.62475 6.62C9.59275 6.62 9.55275 6.62 9.50475 6.62C9.45675 6.612 9.41275 6.604 9.37275 6.596C9.32475 6.588 9.27275 6.584 9.21675 6.584H8.92875C8.88875 6.584 8.84475 6.588 8.79675 6.596C8.75675 6.596 8.69275 6.6 8.60475 6.608C8.51675 6.608 8.39675 6.612 8.24475 6.62C8.09275 6.62 7.88875 6.62 7.63275 6.62H7.54875C7.48475 6.62 7.43275 6.628 7.39275 6.644C7.36075 6.652 7.31275 6.644 7.24875 6.62C7.22475 6.604 7.16475 6.6 7.06875 6.608C6.98075 6.616 6.92075 6.624 6.88875 6.632L6.73275 6.644L6.67275 6.728C6.65675 6.776 6.62875 6.832 6.58875 6.896C6.54875 6.96 6.50875 7.024 6.46875 7.088C6.42875 7.152 6.38875 7.216 6.34875 7.28C6.31675 7.344 6.29275 7.396 6.27675 7.436L6.19275 7.652L5.89275 8.204C5.87675 8.236 5.85275 8.252 5.82075 8.252C5.78875 8.252 5.76475 8.26 5.74875 8.276H5.13675C5.10475 8.244 5.08875 8.224 5.08875 8.216C5.08875 8.208 5.10475 8.184 5.13675 8.144C5.13675 8.112 5.14875 8.064 5.17275 8C5.19675 7.944 5.20875 7.9 5.20875 7.868C5.24875 7.804 5.28075 7.74 5.30475 7.676C5.33675 7.604 5.36875 7.536 5.40075 7.472L5.73675 6.632ZM8.25675 3.656C8.21675 3.672 8.18875 3.692 8.17275 3.716C8.15675 3.74 8.14075 3.768 8.12475 3.8C8.09275 3.912 8.04875 4.024 7.99275 4.136C7.94475 4.24 7.89675 4.348 7.84875 4.46C7.80875 4.54 7.76875 4.616 7.72875 4.688C7.68875 4.752 7.65275 4.824 7.62075 4.904C7.54875 5.064 7.47675 5.224 7.40475 5.384C7.33275 5.536 7.25275 5.688 7.16475 5.84H7.23675C7.30075 5.84 7.35675 5.844 7.40475 5.852C7.46075 5.86 7.51675 5.856 7.57275 5.84C7.62075 5.824 7.66475 5.82 7.70475 5.828C7.75275 5.836 7.79675 5.84 7.83675 5.84C7.97275 5.84 8.11275 5.84 8.25675 5.84C8.40075 5.832 8.56075 5.836 8.73675 5.852C8.82475 5.86 8.90475 5.86 8.97675 5.852C9.05675 5.844 9.13675 5.84 9.21675 5.84H9.32475C9.31675 5.808 9.30475 5.784 9.28875 5.768C9.28075 5.744 9.26875 5.72 9.25275 5.696C9.22075 5.632 9.18475 5.576 9.14475 5.528C9.11275 5.48 9.08475 5.42 9.06075 5.348L8.64075 4.508C8.62475 4.468 8.60875 4.416 8.59275 4.352L8.25675 3.656ZM12.0235 7.364C12.0315 7.316 12.0315 7.268 12.0235 7.22C12.0155 7.172 12.0195 7.12 12.0355 7.064C12.0435 7.048 12.0475 7.02 12.0475 6.98C12.0555 6.94 12.0555 6.908 12.0475 6.884L12.0115 6.512C12.0035 6.448 12.0035 6.384 12.0115 6.32C12.0195 6.248 12.0235 6.176 12.0235 6.104C12.0155 6.072 12.0115 6.044 12.0115 6.02C12.0195 5.988 12.0235 5.956 12.0235 5.924C12.0155 5.836 12.0195 5.744 12.0355 5.648C12.0595 5.552 12.0635 5.46 12.0475 5.372C12.0475 5.364 12.0475 5.344 12.0475 5.312C12.0475 5.28 12.0475 5.248 12.0475 5.216C12.0475 5.176 12.0475 5.14 12.0475 5.108C12.0555 5.076 12.0595 5.056 12.0595 5.048C12.0675 4.896 12.0675 4.736 12.0595 4.568C12.0595 4.384 12.0595 4.22 12.0595 4.076C12.0595 3.924 12.0675 3.796 12.0835 3.692C12.0915 3.652 12.0955 3.604 12.0955 3.548C12.0955 3.484 12.0955 3.42 12.0955 3.356C12.0875 3.268 12.0795 3.172 12.0715 3.068C12.0715 2.964 12.0715 2.86 12.0715 2.756C12.0715 2.572 12.0675 2.412 12.0595 2.276C12.0595 2.132 12.0555 1.968 12.0475 1.784C12.0475 1.72 12.0435 1.66 12.0355 1.604C12.0275 1.54 12.0275 1.476 12.0355 1.412C12.0355 1.396 12.0355 1.356 12.0355 1.292C12.0355 1.228 12.0395 1.188 12.0475 1.172C12.0475 1.164 12.0515 1.156 12.0595 1.148C12.0835 1.124 12.1035 1.112 12.1195 1.112H12.9835C13.0955 1.112 13.2075 1.112 13.3195 1.112C13.4395 1.112 13.5475 1.116 13.6435 1.124C13.7315 1.132 13.8235 1.152 13.9195 1.184C14.0235 1.216 14.1075 1.244 14.1715 1.268C14.3795 1.34 14.5235 1.396 14.6035 1.436C14.6915 1.476 14.7755 1.528 14.8555 1.592C14.9275 1.648 15.0035 1.7 15.0835 1.748C15.1635 1.796 15.2435 1.852 15.3235 1.916C15.4035 1.972 15.4795 2.044 15.5515 2.132C15.6315 2.212 15.7035 2.316 15.7675 2.444C15.8155 2.54 15.8715 2.64 15.9355 2.744C16.0075 2.848 16.0395 2.956 16.0315 3.068C16.0715 3.188 16.0915 3.292 16.0915 3.38C16.0995 3.468 16.1235 3.548 16.1635 3.62C16.2035 3.796 16.2235 3.98 16.2235 4.172C16.2235 4.364 16.2035 4.54 16.1635 4.7C16.1715 4.812 16.1595 4.924 16.1275 5.036C16.1035 5.148 16.0875 5.26 16.0795 5.372C16.0715 5.468 16.0595 5.544 16.0435 5.6C16.0355 5.656 16.0195 5.704 15.9955 5.744C15.9795 5.784 15.9595 5.824 15.9355 5.864C15.9195 5.904 15.8995 5.956 15.8755 6.02C15.8675 6.044 15.8475 6.084 15.8155 6.14C15.7835 6.188 15.7475 6.24 15.7075 6.296C15.6755 6.352 15.6395 6.408 15.5995 6.464C15.5675 6.512 15.5475 6.548 15.5395 6.572C15.4915 6.708 15.4275 6.808 15.3475 6.872C15.2755 6.928 15.1795 7.02 15.0595 7.148C15.0355 7.172 14.9955 7.212 14.9395 7.268C14.8915 7.316 14.8355 7.368 14.7715 7.424C14.7155 7.48 14.6595 7.532 14.6035 7.58C14.5475 7.62 14.5035 7.652 14.4715 7.676C14.4395 7.692 14.3835 7.724 14.3035 7.772C14.2315 7.812 14.1515 7.856 14.0635 7.904C13.9755 7.952 13.8915 7.996 13.8115 8.036C13.7315 8.076 13.6795 8.096 13.6555 8.096C13.5755 8.104 13.4715 8.112 13.3435 8.12C13.2155 8.128 13.0835 8.136 12.9475 8.144C12.8115 8.152 12.6795 8.156 12.5515 8.156C12.4235 8.164 12.3195 8.168 12.2395 8.168H12.1075C12.0835 8.152 12.0675 8.136 12.0595 8.12C12.0515 8.104 12.0435 8.088 12.0355 8.072C12.0275 8.056 12.0235 8.044 12.0235 8.036V7.364ZM12.9235 5.744C12.9155 5.936 12.9115 6.16 12.9115 6.416C12.9115 6.672 12.9155 6.896 12.9235 7.088C13.1555 7.072 13.3475 7.036 13.4995 6.98C13.6515 6.916 13.8115 6.82 13.9795 6.692C14.0915 6.612 14.1675 6.528 14.2075 6.44C14.2555 6.344 14.2995 6.248 14.3395 6.152C14.3795 6.08 14.4115 5.996 14.4355 5.9C14.4675 5.804 14.4995 5.712 14.5315 5.624C14.5475 5.576 14.5675 5.508 14.5915 5.42C14.6235 5.332 14.6395 5.256 14.6395 5.192C14.6395 5.152 14.6475 5.076 14.6635 4.964C14.6875 4.844 14.6955 4.764 14.6875 4.724V4.508C14.6875 4.364 14.6915 4.208 14.6995 4.04C14.7155 3.872 14.7115 3.664 14.6875 3.416V3.344C14.6715 3.136 14.6155 2.964 14.5195 2.828C14.4235 2.692 14.3075 2.544 14.1715 2.384C14.1075 2.304 14.0315 2.244 13.9435 2.204C13.8635 2.164 13.7195 2.108 13.5115 2.036C13.4475 2.012 13.3595 1.996 13.2475 1.988C13.1355 1.972 13.0355 1.96 12.9475 1.952C12.9315 1.984 12.9235 2.004 12.9235 2.012V2.036V2.132C12.9075 2.22 12.8995 2.332 12.8995 2.468C12.9075 2.596 12.9115 2.716 12.9115 2.828C12.9115 2.964 12.9155 3.12 12.9235 3.296C12.9315 3.472 12.9275 3.652 12.9115 3.836C12.9115 3.876 12.9075 3.92 12.8995 3.968C12.8995 4.016 12.8995 4.06 12.8995 4.1C12.9075 4.204 12.9075 4.308 12.8995 4.412C12.8915 4.516 12.8995 4.624 12.9235 4.736C12.9075 4.904 12.9035 5.072 12.9115 5.24C12.9275 5.408 12.9315 5.576 12.9235 5.744ZM19.7829 3.668C19.9429 3.94 20.1109 4.228 20.2869 4.532C20.4709 4.836 20.6669 5.156 20.8749 5.492C20.9149 5.604 20.9629 5.708 21.0189 5.804C21.0829 5.892 21.1469 5.968 21.2109 6.032C21.2429 6.096 21.2829 6.176 21.3309 6.272C21.3789 6.36 21.4269 6.436 21.4749 6.5L21.4989 6.452V5.84C21.4989 5.824 21.4989 5.816 21.4989 5.816C21.5069 5.808 21.5109 5.796 21.5109 5.78C21.4789 5.596 21.4709 5.432 21.4869 5.288C21.5109 5.136 21.5149 4.976 21.4989 4.808C21.5069 4.752 21.5109 4.7 21.5109 4.652C21.5109 4.604 21.5109 4.556 21.5109 4.508L21.4869 3.884V2.396C21.4869 2.364 21.4869 2.304 21.4869 2.216C21.4949 2.128 21.4989 2.032 21.4989 1.928C21.4989 1.816 21.4989 1.708 21.4989 1.604C21.4989 1.5 21.4989 1.42 21.4989 1.364C21.4989 1.332 21.5029 1.304 21.5109 1.28C21.5269 1.248 21.5669 1.232 21.6309 1.232H22.0269C22.0989 1.232 22.1829 1.244 22.2789 1.268C22.3749 1.292 22.4389 1.304 22.4709 1.304H22.5309C22.5309 1.576 22.5309 1.856 22.5309 2.144C22.5389 2.424 22.5429 2.692 22.5429 2.948C22.5509 3.196 22.5589 3.428 22.5669 3.644C22.5749 3.852 22.5829 4.02 22.5909 4.148C22.5829 4.212 22.5789 4.276 22.5789 4.34C22.5869 4.396 22.5869 4.456 22.5789 4.52C22.5709 4.608 22.5669 4.696 22.5669 4.784C22.5749 4.872 22.5789 4.96 22.5789 5.048V5.624C22.5869 5.84 22.5829 6.012 22.5669 6.14C22.5589 6.268 22.5549 6.344 22.5549 6.368C22.5469 6.48 22.5429 6.592 22.5429 6.704C22.5429 6.816 22.5429 6.928 22.5429 7.04C22.5509 7.192 22.5509 7.344 22.5429 7.496C22.5349 7.64 22.5349 7.788 22.5429 7.94C22.5429 8.004 22.5429 8.064 22.5429 8.12C22.5429 8.176 22.5469 8.236 22.5549 8.3C22.5549 8.34 22.5109 8.36 22.4229 8.36H22.0269C21.9309 8.376 21.8549 8.38 21.7989 8.372C21.7429 8.364 21.7029 8.36 21.6789 8.36C21.6389 8.256 21.6029 8.168 21.5709 8.096C21.5389 8.032 21.5029 7.968 21.4629 7.904C21.4309 7.84 21.3949 7.776 21.3549 7.712C21.3149 7.64 21.2669 7.556 21.2109 7.46C21.1869 7.42 21.1549 7.368 21.1149 7.304C21.0749 7.232 21.0389 7.176 21.0069 7.136C20.9589 7.08 20.9189 7.016 20.8869 6.944C20.8549 6.864 20.8029 6.792 20.7309 6.728C20.6269 6.568 20.5269 6.404 20.4309 6.236C20.3349 6.06 20.2309 5.884 20.1189 5.708C20.0069 5.54 19.8789 5.368 19.7349 5.192C19.5909 5.008 19.4469 4.804 19.3029 4.58C19.2389 4.428 19.1429 4.272 19.0149 4.112C18.8949 3.952 18.7909 3.8 18.7029 3.656C18.7029 3.64 18.6989 3.672 18.6909 3.752C18.6909 3.832 18.6909 3.924 18.6909 4.028C18.6909 4.124 18.6869 4.216 18.6789 4.304C18.6789 4.384 18.6789 4.424 18.6789 4.424V4.52C18.6869 4.584 18.6869 4.648 18.6789 4.712C18.6709 4.768 18.6669 4.828 18.6669 4.892L18.6429 6.38L18.6669 7.004C18.6669 7.052 18.6669 7.1 18.6669 7.148C18.6749 7.196 18.6749 7.248 18.6669 7.304C18.6829 7.416 18.6869 7.536 18.6789 7.664C18.6709 7.784 18.6709 7.904 18.6789 8.024C18.6869 8.136 18.6829 8.216 18.6669 8.264C18.6589 8.312 18.6469 8.344 18.6309 8.36H17.6829C17.6189 8.36 17.5509 8.36 17.4789 8.36C17.4149 8.368 17.3509 8.368 17.2869 8.36C17.2789 8.36 17.2709 8.324 17.2629 8.252C17.2629 8.188 17.2629 8.108 17.2629 8.012C17.2629 7.924 17.2629 7.832 17.2629 7.736C17.2629 7.64 17.2629 7.568 17.2629 7.52C17.2629 7.408 17.2629 7.296 17.2629 7.184C17.2709 7.064 17.2709 6.948 17.2629 6.836C17.2629 6.724 17.2669 6.616 17.2749 6.512C17.2829 6.4 17.2829 6.288 17.2749 6.176C17.2749 6.096 17.2709 6.032 17.2629 5.984C17.2629 5.928 17.2629 5.88 17.2629 5.84L17.2389 5.66C17.2389 5.644 17.2389 5.636 17.2389 5.636C17.2469 5.628 17.2509 5.616 17.2509 5.6C17.2189 5.416 17.2069 5.236 17.2149 5.06C17.2309 4.884 17.2309 4.712 17.2149 4.544C17.2229 4.488 17.2269 4.436 17.2269 4.388C17.2269 4.34 17.2269 4.292 17.2269 4.244L17.2029 3.62L17.2389 2.132C17.2389 2.068 17.2349 2.008 17.2269 1.952C17.2269 1.888 17.2229 1.824 17.2149 1.76L17.2869 1.652C17.3269 1.652 17.3949 1.652 17.4909 1.652C17.5869 1.644 17.6989 1.644 17.8269 1.652C17.9309 1.652 18.0069 1.648 18.0549 1.64C18.1109 1.624 18.1709 1.616 18.2349 1.616C18.2749 1.616 18.3069 1.624 18.3309 1.64C18.3629 1.648 18.4029 1.652 18.4509 1.652H18.7029C18.7269 1.716 18.7589 1.784 18.7989 1.856C18.8469 1.928 18.8909 2.004 18.9309 2.084C19.0189 2.26 19.0829 2.412 19.1229 2.54C19.1709 2.66 19.2149 2.748 19.2549 2.804C19.2869 2.844 19.3269 2.9 19.3749 2.972C19.4229 3.044 19.4709 3.12 19.5189 3.2C19.5669 3.28 19.6109 3.364 19.6509 3.452C19.6989 3.532 19.7429 3.604 19.7829 3.668ZM28.4022 1.424C28.3702 1.528 28.3622 1.64 28.3782 1.76C28.3942 1.88 28.4022 1.996 28.4022 2.108C28.3702 2.108 28.3102 2.12 28.2222 2.144C28.1422 2.16 28.0662 2.172 27.9942 2.18C27.9622 2.18 27.9262 2.18 27.8862 2.18C27.8462 2.172 27.8142 2.172 27.7902 2.18L27.5622 2.228H26.8902C26.7222 2.236 26.5702 2.24 26.4342 2.24C26.3062 2.232 26.1582 2.228 25.9902 2.228C25.9582 2.228 25.9102 2.232 25.8462 2.24C25.7902 2.248 25.7502 2.248 25.7262 2.24C25.7262 2.28 25.7222 2.312 25.7142 2.336C25.7062 2.36 25.7022 2.392 25.7022 2.432C25.7102 2.456 25.7142 2.516 25.7142 2.612C25.7222 2.708 25.7262 2.816 25.7262 2.936C25.7342 3.048 25.7382 3.152 25.7382 3.248C25.7462 3.344 25.7502 3.404 25.7502 3.428V3.968C25.7502 4.032 25.7502 4.084 25.7502 4.124C25.7582 4.164 25.7702 4.22 25.7862 4.292H26.4822C26.6102 4.292 26.7302 4.296 26.8422 4.304C26.9542 4.312 27.0782 4.316 27.2142 4.316C27.2862 4.316 27.3702 4.32 27.4662 4.328C27.5702 4.336 27.6502 4.332 27.7062 4.316C27.7142 4.388 27.7222 4.464 27.7302 4.544C27.7382 4.624 27.7422 4.696 27.7422 4.76V4.952C27.7102 4.952 27.6502 4.956 27.5622 4.964C27.4742 4.972 27.3942 4.98 27.3222 4.988H26.8182C26.6582 5.012 26.5102 5.024 26.3742 5.024C26.2382 5.024 26.0862 5.024 25.9182 5.024C25.8862 5.024 25.8462 5.028 25.7982 5.036C25.7502 5.044 25.7142 5.044 25.6902 5.036V5.48C25.6902 5.592 25.6902 5.708 25.6902 5.828C25.6982 5.948 25.7142 6.052 25.7382 6.14C25.7382 6.284 25.7382 6.42 25.7382 6.548C25.7462 6.668 25.7502 6.78 25.7502 6.884V7.088C25.7662 7.08 25.8142 7.084 25.8942 7.1C25.9822 7.116 26.0862 7.132 26.2062 7.148C26.3262 7.164 26.4262 7.176 26.5062 7.184C26.5942 7.192 26.6742 7.208 26.7462 7.232C26.7862 7.248 26.8702 7.26 26.9982 7.268C27.1342 7.268 27.2222 7.268 27.2622 7.268C27.4622 7.292 27.6582 7.308 27.8502 7.316C28.0422 7.324 28.2382 7.336 28.4382 7.352H28.8702C28.9022 7.352 28.9382 7.348 28.9782 7.34C29.0182 7.324 29.0462 7.316 29.0622 7.316C29.1022 7.46 29.1222 7.6 29.1222 7.736C29.1302 7.872 29.1342 8.008 29.1342 8.144C29.0702 8.184 28.9902 8.204 28.8942 8.204C28.7982 8.204 28.7062 8.208 28.6182 8.216C28.5622 8.216 28.5022 8.212 28.4382 8.204C28.3742 8.196 28.3102 8.192 28.2462 8.192C28.0862 8.2 27.8942 8.2 27.6702 8.192C27.4542 8.184 27.2662 8.188 27.1062 8.204H26.9262C26.8382 8.188 26.7142 8.176 26.5542 8.168C26.4022 8.16 26.2862 8.156 26.2062 8.156C26.1182 8.148 25.9782 8.148 25.7862 8.156C25.5942 8.172 25.2742 8.184 24.8262 8.192C24.8102 8.192 24.7542 8.192 24.6582 8.192C24.5702 8.192 24.4702 8.192 24.3582 8.192C24.2542 8.2 24.1542 8.204 24.0582 8.204C23.9702 8.212 23.9182 8.216 23.9022 8.216C23.9022 8.048 23.8902 7.884 23.8662 7.724C23.8502 7.564 23.8422 7.416 23.8422 7.28C23.8422 7.2 23.8382 7.108 23.8302 7.004C23.8222 6.9 23.8262 6.812 23.8422 6.74C23.8582 6.484 23.8622 6.232 23.8542 5.984C23.8542 5.736 23.8542 5.484 23.8542 5.228C23.8542 5.172 23.8502 5.072 23.8422 4.928C23.8342 4.784 23.8342 4.648 23.8422 4.52L23.8182 4.148C23.8102 4.092 23.8142 3.992 23.8302 3.848C23.8542 3.696 23.8622 3.564 23.8542 3.452C23.8462 3.268 23.8382 3.108 23.8302 2.972C23.8222 2.828 23.8142 2.66 23.8062 2.468C23.7982 2.3 23.7982 2.136 23.8062 1.976C23.8222 1.808 23.8302 1.648 23.8302 1.496C23.8302 1.456 23.8302 1.424 23.8302 1.4C23.8382 1.368 23.8622 1.336 23.9022 1.304L24.5142 1.328C24.6342 1.336 24.7702 1.336 24.9222 1.328C25.0822 1.32 25.2222 1.32 25.3422 1.328C25.3742 1.328 25.4022 1.328 25.4262 1.328C25.4582 1.32 25.4902 1.316 25.5222 1.316C25.5462 1.316 25.5982 1.316 25.6782 1.316C25.7582 1.316 25.8422 1.316 25.9302 1.316C26.0182 1.316 26.0982 1.316 26.1702 1.316C26.2422 1.316 26.2862 1.32 26.3022 1.328C26.3182 1.336 26.3662 1.344 26.4462 1.352C26.5262 1.36 26.5862 1.364 26.6262 1.364C26.6502 1.364 26.6862 1.364 26.7342 1.364C26.7822 1.356 26.8302 1.352 26.8782 1.352C26.9342 1.352 26.9862 1.352 27.0342 1.352C27.0822 1.352 27.1182 1.352 27.1422 1.352C27.2302 1.368 27.3102 1.376 27.3822 1.376C27.4622 1.368 27.5462 1.368 27.6342 1.376C27.6422 1.376 27.6822 1.38 27.7542 1.388C27.8342 1.388 27.9222 1.392 28.0182 1.4C28.1142 1.408 28.1982 1.416 28.2702 1.424C28.3502 1.424 28.3942 1.424 28.4022 1.424ZM38.0429 1.4C38.2269 1.416 38.3909 1.428 38.5349 1.436C38.6789 1.444 38.8469 1.448 39.0389 1.448C39.0789 1.448 39.1149 1.452 39.1469 1.46C39.1789 1.46 39.2109 1.46 39.2429 1.46H39.5669C39.6069 1.46 39.6309 1.464 39.6389 1.472C39.6469 1.472 39.6509 1.492 39.6509 1.532C39.6509 1.572 39.6469 1.624 39.6389 1.688C39.6309 1.752 39.6069 1.816 39.5669 1.88L39.0389 3.284C39.0229 3.324 39.0029 3.38 38.9789 3.452C38.9549 3.516 38.9269 3.588 38.8949 3.668C38.8709 3.748 38.8429 3.824 38.8109 3.896C38.7869 3.968 38.7709 4.024 38.7629 4.064C38.7389 4.088 38.7029 4.152 38.6549 4.256C38.6149 4.352 38.5669 4.46 38.5109 4.58C38.4629 4.692 38.4149 4.8 38.3669 4.904C38.3269 5 38.2949 5.064 38.2709 5.096C38.2469 5.144 38.2229 5.208 38.1989 5.288C38.1829 5.36 38.1589 5.44 38.1269 5.528C38.0549 5.68 37.9749 5.856 37.8869 6.056C37.8069 6.256 37.7429 6.412 37.6949 6.524C37.6709 6.556 37.6469 6.608 37.6229 6.68C37.5989 6.744 37.5709 6.812 37.5389 6.884C37.5149 6.956 37.4909 7.028 37.4669 7.1C37.4429 7.164 37.4229 7.212 37.4069 7.244C37.3589 7.332 37.3189 7.428 37.2869 7.532C37.2629 7.628 37.2309 7.72 37.1909 7.808C37.1589 7.888 37.1269 7.976 37.0949 8.072C37.0709 8.168 37.0469 8.252 37.0229 8.324H36.8309C36.7909 8.324 36.7549 8.32 36.7229 8.312C36.6909 8.304 36.6309 8.308 36.5429 8.324C36.4789 8.324 36.3989 8.328 36.3029 8.336C36.2069 8.344 36.1389 8.34 36.0989 8.324H35.6789C35.6469 8.324 35.6189 8.312 35.5949 8.288C35.5789 8.28 35.5629 8.268 35.5469 8.252C35.5549 8.204 35.5349 8.136 35.4869 8.048C35.4469 7.968 35.4189 7.88 35.4029 7.784C35.3629 7.712 35.3389 7.64 35.3309 7.568C35.3229 7.496 35.3029 7.428 35.2709 7.364C35.2309 7.204 35.1869 7.056 35.1389 6.92C35.0989 6.776 35.0589 6.64 35.0189 6.512C34.9549 6.336 34.8949 6.164 34.8389 5.996C34.7909 5.82 34.7349 5.648 34.6709 5.48C34.6389 5.36 34.5989 5.232 34.5509 5.096C34.5029 4.952 34.4629 4.84 34.4309 4.76C34.4309 4.752 34.4269 4.748 34.4189 4.748C34.4189 4.74 34.4189 4.732 34.4189 4.724C34.4109 4.716 34.4069 4.708 34.4069 4.7C34.3909 4.7 34.3789 4.716 34.3709 4.748C34.3709 4.772 34.3629 4.792 34.3469 4.808C34.3469 4.8 34.3349 4.82 34.3109 4.868C34.2949 4.916 34.2709 4.976 34.2389 5.048C34.2069 5.12 34.1789 5.192 34.1549 5.264C34.1309 5.336 34.1149 5.388 34.1069 5.42C34.0669 5.612 34.0069 5.82 33.9269 6.044C33.8549 6.268 33.7949 6.468 33.7469 6.644C33.6909 6.732 33.6469 6.84 33.6149 6.968C33.5829 7.088 33.5549 7.204 33.5309 7.316C33.5069 7.42 33.4789 7.528 33.4469 7.64C33.4149 7.744 33.3749 7.832 33.3269 7.904C33.3269 7.904 33.3189 7.928 33.3029 7.976C33.2869 8.016 33.2669 8.06 33.2429 8.108C33.2269 8.156 33.2069 8.2 33.1829 8.24C33.1669 8.288 33.1589 8.316 33.1589 8.324H32.0069C31.9669 8.324 31.9269 8.308 31.8869 8.276C31.8549 8.252 31.8389 8.22 31.8389 8.18L31.7429 7.796C31.7269 7.756 31.7029 7.696 31.6709 7.616C31.6389 7.536 31.6069 7.456 31.5749 7.376C31.5509 7.288 31.5269 7.208 31.5029 7.136C31.4789 7.056 31.4629 6.996 31.4549 6.956C31.4149 6.86 31.3829 6.772 31.3589 6.692C31.3429 6.604 31.3149 6.516 31.2749 6.428C31.2589 6.372 31.2349 6.304 31.2029 6.224C31.1789 6.144 31.1509 6.064 31.1189 5.984C31.0869 5.896 31.0589 5.816 31.0349 5.744C31.0189 5.672 31.0069 5.612 30.9989 5.564C30.9909 5.5 30.9749 5.444 30.9509 5.396C30.9349 5.348 30.9149 5.296 30.8909 5.24C30.8589 5.176 30.8469 5.136 30.8549 5.12C30.8549 5.12 30.8349 5.076 30.7949 4.988C30.7629 4.9 30.7269 4.804 30.6869 4.7C30.6469 4.588 30.6069 4.484 30.5669 4.388C30.5349 4.292 30.5189 4.228 30.5189 4.196C30.4949 4.084 30.4549 3.964 30.3989 3.836C30.3429 3.7 30.3069 3.576 30.2909 3.464C30.2749 3.392 30.2509 3.344 30.2189 3.32L30.0869 2.996L30.0269 2.9C30.0109 2.844 29.9869 2.764 29.9549 2.66C29.9229 2.556 29.8869 2.448 29.8469 2.336C29.8069 2.224 29.7669 2.12 29.7269 2.024C29.6949 1.928 29.6669 1.856 29.6429 1.808C29.6029 1.776 29.5789 1.732 29.5709 1.676C29.5629 1.62 29.5389 1.572 29.4989 1.532C29.4989 1.492 29.4989 1.472 29.4989 1.472C29.5069 1.464 29.5309 1.46 29.5709 1.46C29.6509 1.444 29.7269 1.444 29.7989 1.46C29.8789 1.468 29.9589 1.468 30.0389 1.46C30.1589 1.452 30.3109 1.46 30.4949 1.484C30.6789 1.508 30.8469 1.528 30.9989 1.544C31.0309 1.544 31.0589 1.564 31.0829 1.604C31.1069 1.628 31.1189 1.652 31.1189 1.676C31.1189 1.716 31.1269 1.764 31.1429 1.82C31.1669 1.868 31.1869 1.916 31.2029 1.964C31.2509 2.164 31.2989 2.376 31.3469 2.6C31.3949 2.816 31.4429 3.004 31.4909 3.164C31.5149 3.204 31.5429 3.272 31.5749 3.368C31.6069 3.464 31.6349 3.568 31.6589 3.68C31.6829 3.792 31.7029 3.896 31.7189 3.992C31.7429 4.08 31.7589 4.136 31.7669 4.16C31.8149 4.256 31.8509 4.352 31.8749 4.448C31.9069 4.544 31.9389 4.636 31.9709 4.724C31.9789 4.74 31.9909 4.768 32.0069 4.808C32.0229 4.848 32.0389 4.892 32.0549 4.94C32.0789 4.98 32.0949 5.02 32.1029 5.06C32.1189 5.1 32.1269 5.124 32.1269 5.132C32.1909 5.308 32.2429 5.468 32.2829 5.612C32.3309 5.756 32.3869 5.896 32.4509 6.032C32.5309 6.16 32.5829 6.284 32.6069 6.404C32.6389 6.524 32.6869 6.636 32.7509 6.74C32.7509 6.764 32.7589 6.784 32.7749 6.8C32.7829 6.808 32.7869 6.816 32.7869 6.824C32.8189 6.824 32.8469 6.804 32.8709 6.764C32.9909 6.484 33.0869 6.192 33.1589 5.888C33.2309 5.576 33.3269 5.268 33.4469 4.964C33.5109 4.756 33.5749 4.548 33.6389 4.34C33.7029 4.124 33.7549 3.896 33.7949 3.656C33.8109 3.592 33.8229 3.54 33.8309 3.5C33.8389 3.46 33.8549 3.428 33.8789 3.404C33.9429 3.38 34.0029 3.376 34.0589 3.392C34.1149 3.4 34.1589 3.404 34.1909 3.404H34.6709C34.7109 3.396 34.7509 3.396 34.7909 3.404C34.8309 3.412 34.8589 3.448 34.8749 3.512C34.9629 3.704 35.0269 3.9 35.0669 4.1C35.1069 4.3 35.1549 4.5 35.2109 4.7C35.2749 4.836 35.3269 4.984 35.3669 5.144C35.4149 5.296 35.4669 5.432 35.5229 5.552C35.5789 5.696 35.6229 5.848 35.6549 6.008C35.6869 6.16 35.7229 6.308 35.7629 6.452C35.8189 6.564 35.8549 6.688 35.8709 6.824C35.8869 6.952 35.9269 7.048 35.9909 7.112C36.0389 7.112 36.0709 7.1 36.0869 7.076C36.0949 7.068 36.0989 7.056 36.0989 7.04C36.0829 7.024 36.0869 6.992 36.1109 6.944C36.1349 6.888 36.1549 6.832 36.1709 6.776L36.3509 6.236L36.5789 5.696C36.6029 5.608 36.6429 5.488 36.6989 5.336C36.7549 5.184 36.7989 5.072 36.8309 5C36.8709 4.904 36.9029 4.812 36.9269 4.724C36.9509 4.628 36.9789 4.536 37.0109 4.448C37.0189 4.4 37.0309 4.336 37.0469 4.256C37.0709 4.176 37.0949 4.096 37.1189 4.016C37.1429 3.928 37.1669 3.848 37.1909 3.776C37.2149 3.696 37.2349 3.632 37.2509 3.584C37.2749 3.52 37.2989 3.468 37.3229 3.428C37.3469 3.38 37.3709 3.324 37.3949 3.26C37.4509 3.108 37.5069 2.94 37.5629 2.756C37.6189 2.572 37.6749 2.392 37.7309 2.216C37.7709 2.104 37.8029 2 37.8269 1.904C37.8509 1.808 37.8789 1.72 37.9109 1.64C37.9269 1.616 37.9509 1.576 37.9829 1.52C38.0229 1.456 38.0429 1.416 38.0429 1.4ZM42.7494 1.028C42.8294 0.996 42.9494 0.988 43.1094 1.004C43.2694 1.02 43.3974 1.028 43.4934 1.028C43.5494 1.028 43.6214 1.032 43.7094 1.04C43.8054 1.04 43.9054 1.048 44.0094 1.064C44.1134 1.072 44.2094 1.08 44.2974 1.088C44.3934 1.088 44.4654 1.088 44.5134 1.088C44.5854 1.088 44.6854 1.092 44.8134 1.1C44.9414 1.1 45.0374 1.116 45.1014 1.148C45.1334 1.164 45.2014 1.18 45.3054 1.196C45.4174 1.204 45.4854 1.212 45.5094 1.22C45.5494 1.22 45.5734 1.224 45.5814 1.232C45.5894 1.232 45.6094 1.248 45.6414 1.28C45.6414 1.36 45.6294 1.436 45.6054 1.508C45.5894 1.572 45.5814 1.636 45.5814 1.7C45.5254 1.7 45.4654 1.704 45.4014 1.712C45.3374 1.72 45.2814 1.728 45.2334 1.736C45.1534 1.752 45.0894 1.76 45.0414 1.76C45.0014 1.752 44.9294 1.748 44.8254 1.748C44.7294 1.748 44.6254 1.752 44.5134 1.76C44.4094 1.768 44.3134 1.776 44.2254 1.784C44.1374 1.792 44.0614 1.8 43.9974 1.808C43.9414 1.816 43.9094 1.82 43.9014 1.82C43.8134 1.836 43.6974 1.86 43.5534 1.892C43.4094 1.924 43.2614 1.964 43.1094 2.012C42.9574 2.052 42.8174 2.1 42.6894 2.156C42.5614 2.212 42.4734 2.268 42.4254 2.324C42.3534 2.428 42.2814 2.512 42.2094 2.576C42.1454 2.632 42.0974 2.716 42.0654 2.828C42.0494 2.86 42.0414 2.916 42.0414 2.996C42.0414 3.068 42.0414 3.148 42.0414 3.236C42.0494 3.316 42.0614 3.396 42.0774 3.476C42.0934 3.556 42.1134 3.616 42.1374 3.656C42.2014 3.728 42.2534 3.8 42.2934 3.872C42.3334 3.944 42.3654 3.988 42.3894 4.004C42.4454 4.036 42.5134 4.076 42.5934 4.124C42.6814 4.172 42.7694 4.216 42.8574 4.256C42.8734 4.264 42.9214 4.276 43.0014 4.292C43.0894 4.3 43.1894 4.32 43.3014 4.352C43.3654 4.368 43.4054 4.38 43.4214 4.388C43.4374 4.396 43.4734 4.408 43.5294 4.424C43.5694 4.44 43.5974 4.452 43.6134 4.46C43.6294 4.468 43.6574 4.48 43.6974 4.496C43.7454 4.512 43.7974 4.528 43.8534 4.544C43.9174 4.552 43.9534 4.556 43.9614 4.556C44.0254 4.556 44.0894 4.568 44.1534 4.592C44.2254 4.608 44.2934 4.616 44.3574 4.616C44.4694 4.648 44.5734 4.672 44.6694 4.688C44.7654 4.704 44.8654 4.748 44.9694 4.82C45.0254 4.836 45.0854 4.856 45.1494 4.88C45.2134 4.904 45.2654 4.928 45.3054 4.952C45.3294 4.968 45.3734 4.996 45.4374 5.036C45.5094 5.068 45.5814 5.108 45.6534 5.156C45.7254 5.204 45.7934 5.256 45.8574 5.312C45.9214 5.368 45.9614 5.416 45.9774 5.456C46.0574 5.584 46.1134 5.716 46.1454 5.852C46.1774 5.98 46.1934 6.112 46.1934 6.248C46.1934 6.288 46.1854 6.34 46.1694 6.404C46.1614 6.468 46.1534 6.52 46.1454 6.56L46.0854 6.896C46.0694 6.936 46.0334 7.008 45.9774 7.112C45.9214 7.216 45.8854 7.276 45.8694 7.292C45.8614 7.308 45.8414 7.336 45.8094 7.376C45.7774 7.408 45.7414 7.444 45.7014 7.484C45.6694 7.516 45.6374 7.548 45.6054 7.58C45.5734 7.604 45.5534 7.62 45.5454 7.628C45.4894 7.676 45.4014 7.74 45.2814 7.82C45.1694 7.9 45.0454 7.98 44.9094 8.06C44.7814 8.148 44.6534 8.22 44.5254 8.276C44.4054 8.34 44.3054 8.372 44.2254 8.372C44.2094 8.388 44.1894 8.392 44.1654 8.384C44.1414 8.384 44.1174 8.392 44.0934 8.408C44.0054 8.408 43.9214 8.412 43.8414 8.42C43.7614 8.436 43.6534 8.44 43.5174 8.432C43.3974 8.424 43.2814 8.424 43.1694 8.432C43.0654 8.448 42.9494 8.452 42.8214 8.444C42.7574 8.444 42.6614 8.444 42.5334 8.444C42.4054 8.444 42.2694 8.44 42.1254 8.432C41.9814 8.432 41.8414 8.428 41.7054 8.42C41.5774 8.412 41.4734 8.396 41.3934 8.372C41.3854 8.372 41.3574 8.368 41.3094 8.36C41.2694 8.352 41.2214 8.344 41.1654 8.336C41.1174 8.336 41.0694 8.332 41.0214 8.324C40.9734 8.316 40.9374 8.312 40.9134 8.312C40.8494 8.304 40.7534 8.292 40.6254 8.276C40.5054 8.26 40.4214 8.244 40.3734 8.228C40.3414 8.212 40.3054 8.188 40.2654 8.156C40.2334 8.132 40.2174 8.1 40.2174 8.06C40.2014 8.028 40.1774 7.968 40.1454 7.88C40.1214 7.784 40.0974 7.688 40.0734 7.592C40.0494 7.488 40.0294 7.396 40.0134 7.316C40.0054 7.236 40.0094 7.196 40.0254 7.196C40.1614 7.228 40.2974 7.26 40.4334 7.292C40.5774 7.316 40.7374 7.344 40.9134 7.376C41.0494 7.376 41.1854 7.392 41.3214 7.424C41.4574 7.448 41.6134 7.46 41.7894 7.46C41.8534 7.46 41.9214 7.456 41.9934 7.448C42.0654 7.432 42.1574 7.416 42.2694 7.4C42.2934 7.392 42.3174 7.388 42.3414 7.388C42.3654 7.388 42.3854 7.384 42.4014 7.376C42.5214 7.376 42.6614 7.34 42.8214 7.268C42.9814 7.188 43.1054 7.128 43.1934 7.088C43.2014 7.088 43.2214 7.076 43.2534 7.052C43.2934 7.028 43.3334 7 43.3734 6.968C43.4134 6.928 43.4494 6.892 43.4814 6.86C43.5214 6.828 43.5454 6.804 43.5534 6.788L43.7814 6.44C43.7974 6.4 43.8174 6.356 43.8414 6.308C43.8734 6.252 43.8974 6.204 43.9134 6.164C43.9614 6.044 43.9614 5.892 43.9134 5.708C43.8654 5.668 43.8254 5.624 43.7934 5.576C43.7694 5.528 43.7334 5.476 43.6854 5.42C43.6454 5.356 43.5974 5.308 43.5414 5.276C43.4854 5.236 43.4254 5.2 43.3614 5.168C43.2494 5.128 43.1454 5.092 43.0494 5.06C42.9534 5.02 42.8734 5 42.8094 5C42.6974 4.968 42.6054 4.948 42.5334 4.94C42.4694 4.932 42.4054 4.912 42.3414 4.88C42.2374 4.848 42.1454 4.828 42.0654 4.82C41.9934 4.812 41.9254 4.788 41.8614 4.748C41.7574 4.748 41.6654 4.736 41.5854 4.712C41.5134 4.68 41.4214 4.648 41.3094 4.616C41.2694 4.592 41.2254 4.568 41.1774 4.544C41.1294 4.52 41.0934 4.5 41.0694 4.484C40.9574 4.396 40.8614 4.324 40.7814 4.268C40.7014 4.212 40.6174 4.128 40.5294 4.016C40.4494 3.912 40.3934 3.844 40.3614 3.812C40.3294 3.772 40.2894 3.704 40.2414 3.608C40.2254 3.568 40.2094 3.516 40.1934 3.452C40.1774 3.38 40.1654 3.312 40.1574 3.248C40.1494 3.176 40.1414 3.112 40.1334 3.056C40.1334 2.992 40.1334 2.948 40.1334 2.924C40.1334 2.82 40.1374 2.736 40.1454 2.672C40.1534 2.608 40.1614 2.54 40.1694 2.468C40.1774 2.404 40.1974 2.336 40.2294 2.264C40.2614 2.192 40.2974 2.132 40.3374 2.084C40.4254 1.924 40.5254 1.812 40.6374 1.748C40.7494 1.676 40.8774 1.588 41.0214 1.484C41.0534 1.46 41.1014 1.432 41.1654 1.4C41.2374 1.36 41.3094 1.324 41.3814 1.292C41.4614 1.26 41.5374 1.232 41.6094 1.208C41.6814 1.184 41.7414 1.164 41.7894 1.148C41.8534 1.148 41.9094 1.14 41.9574 1.124C42.0054 1.1 42.0654 1.088 42.1374 1.088C42.2014 1.088 42.2494 1.084 42.2814 1.076C42.3214 1.068 42.3734 1.064 42.4374 1.064C42.4774 1.064 42.5174 1.068 42.5574 1.076C42.6054 1.076 42.6694 1.06 42.7494 1.028ZM47.0417 8.24C47.0497 8.224 47.1097 8.204 47.2217 8.18C47.3417 8.156 47.4417 8.152 47.5217 8.168C47.6257 8.184 47.7297 8.188 47.8337 8.18C47.9377 8.172 48.0417 8.2 48.1457 8.264C48.1777 8.28 48.1857 8.3 48.1697 8.324C48.1617 8.356 48.1577 8.384 48.1577 8.408C48.1497 8.52 48.1457 8.632 48.1457 8.744C48.1537 8.856 48.1537 8.968 48.1457 9.08C48.1377 9.168 48.1457 9.264 48.1697 9.368C48.1937 9.48 48.1977 9.552 48.1817 9.584C48.1737 9.6 48.1617 9.604 48.1457 9.596C48.1297 9.596 48.1137 9.596 48.0977 9.596C47.9617 9.58 47.8297 9.576 47.7017 9.584C47.5737 9.6 47.4457 9.616 47.3177 9.632C47.2617 9.64 47.1937 9.632 47.1137 9.608C47.0897 9.6 47.0737 9.568 47.0657 9.512C47.0657 9.464 47.0657 9.42 47.0657 9.38C47.0657 9.204 47.0617 9.032 47.0537 8.864C47.0457 8.696 47.0377 8.524 47.0297 8.348C47.0297 8.3 47.0337 8.264 47.0417 8.24ZM51.1441 5.3L51.3641 5.08L51.7041 4.75C51.7441 4.70333 51.7841 4.66667 51.8241 4.64C51.8641 4.61333 51.9307 4.60667 52.0241 4.62C52.0907 4.62 52.1641 4.62667 52.2441 4.64C52.3241 4.65333 52.4141 4.66 52.5141 4.66C52.5274 4.66 52.5674 4.66333 52.6341 4.67C52.7074 4.67 52.7441 4.67333 52.7441 4.68C52.7441 4.71333 52.7341 4.74 52.7141 4.76L52.2841 5.22C52.2707 5.23333 52.2374 5.26667 52.1841 5.32C52.1307 5.36667 52.0741 5.42 52.0141 5.48C51.9541 5.53333 51.8974 5.58667 51.8441 5.64C51.7907 5.68667 51.7574 5.72 51.7441 5.74C51.6907 5.8 51.6307 5.85667 51.5641 5.91C51.5041 5.96333 51.4474 6.01667 51.3941 6.07C51.3341 6.13 51.2774 6.18667 51.2241 6.24C51.1707 6.29333 51.1074 6.34667 51.0341 6.4L50.8641 6.49C50.8774 6.51667 50.9174 6.56667 50.9841 6.64C51.0574 6.71333 51.1341 6.78667 51.2141 6.86C51.2874 6.93333 51.3574 6.99667 51.4241 7.05C51.4907 7.09667 51.5307 7.13 51.5441 7.15L51.9041 7.52L52.2541 7.85C52.2874 7.89667 52.3374 7.96333 52.4041 8.05C52.4774 8.13667 52.5607 8.22667 52.6541 8.32C52.6874 8.35333 52.7207 8.38667 52.7541 8.42C52.7941 8.45333 52.8307 8.48667 52.8641 8.52C52.9174 8.57333 52.9641 8.62333 53.0041 8.67C53.0441 8.71667 53.0741 8.75667 53.0941 8.79C53.0941 8.81 53.0474 8.81333 52.9541 8.8C52.9007 8.78667 52.8507 8.77667 52.8041 8.77C52.7641 8.77 52.7174 8.76667 52.6641 8.76C52.5974 8.75333 52.5307 8.75 52.4641 8.75C52.3974 8.75667 52.3307 8.75333 52.2641 8.74C52.2107 8.72667 52.1607 8.72333 52.1141 8.73C52.0674 8.73667 52.0207 8.74 51.9741 8.74C51.9341 8.74 51.9007 8.73 51.8741 8.71C51.8541 8.69667 51.8407 8.68333 51.8341 8.67C51.7941 8.62333 51.7541 8.57667 51.7141 8.53C51.6807 8.49 51.6441 8.45 51.6041 8.41C51.5641 8.36333 51.5174 8.30667 51.4641 8.24C51.4174 8.17333 51.3741 8.12 51.3341 8.08C51.2474 7.98667 51.1674 7.91333 51.0941 7.86C51.0207 7.8 50.9441 7.73 50.8641 7.65C50.8041 7.55 50.7274 7.46333 50.6341 7.39C50.5474 7.31667 50.4574 7.23 50.3641 7.13C50.3707 7.16333 50.3707 7.2 50.3641 7.24C50.3641 7.27333 50.3641 7.30667 50.3641 7.34C50.3641 7.36667 50.3641 7.41333 50.3641 7.48C50.3707 7.54667 50.3741 7.62 50.3741 7.7C50.3807 7.77333 50.3841 7.84667 50.3841 7.92C50.3907 7.98667 50.3907 8.03333 50.3841 8.06C50.3841 8.12 50.3807 8.19 50.3741 8.27C50.3741 8.35667 50.3707 8.40667 50.3641 8.42C50.3507 8.43333 50.3207 8.43667 50.2741 8.43C50.2341 8.42333 50.1974 8.42 50.1641 8.42C50.0774 8.42 49.9874 8.42 49.8941 8.42C49.8074 8.42 49.7274 8.43 49.6541 8.45C49.6207 8.46333 49.5874 8.46667 49.5541 8.46C49.5207 8.46 49.4874 8.46 49.4541 8.46C49.4541 8.43333 49.4507 8.37333 49.4441 8.28C49.4441 8.18667 49.4407 8.09 49.4341 7.99C49.4341 7.88333 49.4341 7.78667 49.4341 7.7C49.4341 7.60667 49.4374 7.54667 49.4441 7.52L49.4141 6.81C49.4141 6.75667 49.4041 6.70333 49.3841 6.65C49.3707 6.59 49.3674 6.53333 49.3741 6.48C49.3741 6.38667 49.3774 6.29333 49.3841 6.2C49.3974 6.10667 49.4007 6.01333 49.3941 5.92C49.3874 5.82667 49.3874 5.73333 49.3941 5.64C49.4007 5.54 49.4074 5.44333 49.4141 5.35V4.96C49.4141 4.86 49.4107 4.76333 49.4041 4.67C49.4041 4.57667 49.4007 4.48 49.3941 4.38C49.3807 4.26 49.3807 4.14 49.3941 4.02C49.4074 3.89333 49.4174 3.76667 49.4241 3.64L49.4441 3.31V2.6C49.4441 2.54667 49.4407 2.49 49.4341 2.43C49.4274 2.36333 49.4274 2.29667 49.4341 2.23V2.05C49.4341 2.01667 49.4474 1.98667 49.4741 1.96C49.5007 1.92667 49.5274 1.91 49.5541 1.91C49.6541 1.91 49.7374 1.91 49.8041 1.91C49.8707 1.90333 49.9507 1.9 50.0441 1.9C50.0841 1.9 50.1174 1.89667 50.1441 1.89C50.1641 1.93 50.1741 1.97 50.1741 2.01C50.1674 2.12333 50.1674 2.24667 50.1741 2.38C50.1874 2.51333 50.1941 2.63667 50.1941 2.75L50.2141 3.03V3.28C50.2141 3.32 50.2107 3.38 50.2041 3.46C50.2041 3.53333 50.2041 3.61333 50.2041 3.7C50.2041 3.78667 50.2041 3.87 50.2041 3.95C50.2041 4.02333 50.2074 4.07667 50.2141 4.11C50.2141 4.19667 50.2141 4.28333 50.2141 4.37C50.2207 4.45 50.2274 4.53333 50.2341 4.62C50.2341 4.65333 50.2341 4.70667 50.2341 4.78C50.2407 4.85333 50.2441 4.93333 50.2441 5.02C50.2441 5.1 50.2441 5.17667 50.2441 5.25C50.2441 5.32333 50.2441 5.37667 50.2441 5.41L50.2941 5.84V5.97C50.3874 5.90333 50.4674 5.84333 50.5341 5.79C50.6007 5.73 50.6707 5.67333 50.7441 5.62L51.1441 5.3ZM53.9165 4.59C53.9165 4.57 53.9132 4.55 53.9065 4.53C53.8998 4.51 53.8998 4.49 53.9065 4.47C53.9132 4.47 53.9232 4.47 53.9365 4.47C53.9565 4.46333 53.9732 4.46 53.9865 4.46H54.0465C54.0798 4.45333 54.1132 4.45333 54.1465 4.46C54.1798 4.46 54.2132 4.45667 54.2465 4.45H54.5465C54.5598 4.45 54.5732 4.45667 54.5865 4.47C54.5998 4.48333 54.6098 4.49333 54.6165 4.5L54.6365 4.59C54.6365 4.61 54.6398 4.63333 54.6465 4.66C54.6598 4.71333 54.6665 4.77 54.6665 4.83C54.6732 4.85 54.6765 4.87 54.6765 4.89C54.6765 4.93 54.6798 4.95 54.6865 4.95C54.7132 4.92333 54.7332 4.89667 54.7465 4.87C54.7598 4.83667 54.7765 4.81333 54.7965 4.8C54.8165 4.78 54.8298 4.76667 54.8365 4.76C54.8498 4.75333 54.8598 4.74667 54.8665 4.74C54.8798 4.73333 54.8965 4.72667 54.9165 4.72C54.9365 4.70667 54.9665 4.68667 55.0065 4.66C55.0665 4.62667 55.1198 4.6 55.1665 4.58C55.2198 4.56 55.2998 4.52333 55.4065 4.47C55.4265 4.46333 55.4598 4.45333 55.5065 4.44C55.5598 4.42667 55.6165 4.41667 55.6765 4.41C55.7365 4.39667 55.7965 4.39 55.8565 4.39C55.9232 4.38333 55.9798 4.38 56.0265 4.38C56.0998 4.38667 56.1598 4.39667 56.2065 4.41C56.2532 4.41667 56.3165 4.42667 56.3965 4.44C56.4298 4.44667 56.4832 4.45333 56.5565 4.46C56.6365 4.46667 56.6898 4.47667 56.7165 4.49C56.8832 4.58333 57.0165 4.66333 57.1165 4.73C57.2165 4.79667 57.3032 4.88667 57.3765 5C57.3898 5.01333 57.4098 5.03 57.4365 5.05C57.4632 5.06333 57.4932 5.08667 57.5265 5.12C57.5598 5.15333 57.5898 5.2 57.6165 5.26C57.6498 5.31333 57.6665 5.34667 57.6665 5.36C57.6932 5.47333 57.7232 5.56667 57.7565 5.64C57.7898 5.70667 57.8098 5.79667 57.8165 5.91C57.8232 5.96333 57.8398 6.02333 57.8665 6.09C57.8932 6.15 57.9065 6.21333 57.9065 6.28C57.9065 6.34667 57.9098 6.42333 57.9165 6.51C57.9232 6.59 57.9198 6.70667 57.9065 6.86C57.9065 6.90667 57.9065 6.95 57.9065 6.99C57.9132 7.03 57.9165 7.07 57.9165 7.11V7.57C57.9165 7.61667 57.9165 7.66 57.9165 7.7C57.9165 7.74 57.9132 7.78 57.9065 7.82C57.9065 7.87333 57.9065 7.92 57.9065 7.96C57.9132 8 57.9165 8.04667 57.9165 8.1C57.9165 8.11333 57.9165 8.12667 57.9165 8.14C57.9165 8.16 57.9098 8.17333 57.8965 8.18C57.8832 8.18667 57.8632 8.19 57.8365 8.19C57.8165 8.19 57.7998 8.19 57.7865 8.19C57.7265 8.19 57.6698 8.19 57.6165 8.19C57.5632 8.19667 57.5065 8.19667 57.4465 8.19L57.1465 8.16C57.1198 8.15333 57.0832 8.15333 57.0365 8.16C56.9898 8.16667 56.9598 8.15667 56.9465 8.13C56.9398 7.97667 56.9365 7.87 56.9365 7.81C56.9432 7.74333 56.9465 7.68333 56.9465 7.63C56.9465 7.59667 56.9432 7.55667 56.9365 7.51C56.9298 7.45667 56.9232 7.38667 56.9165 7.3L56.9465 6.77C56.9465 6.70333 56.9432 6.65333 56.9365 6.62C56.9365 6.58 56.9332 6.55 56.9265 6.53C56.9265 6.50333 56.9232 6.47333 56.9165 6.44C56.9165 6.40667 56.9165 6.35333 56.9165 6.28C56.9165 6.16 56.8932 6.04 56.8465 5.92C56.8065 5.8 56.7565 5.68 56.6965 5.56C56.6632 5.49333 56.6198 5.43333 56.5665 5.38C56.5132 5.32667 56.4432 5.28 56.3565 5.24C56.3432 5.23333 56.3265 5.22667 56.3065 5.22C56.2865 5.21333 56.2698 5.21 56.2565 5.21L56.0265 5.19C55.9132 5.18333 55.7965 5.20333 55.6765 5.25C55.5565 5.29667 55.4832 5.34333 55.4565 5.39C55.4098 5.47 55.3732 5.53 55.3465 5.57C55.3198 5.61 55.2932 5.65 55.2665 5.69C55.2598 5.71 55.2498 5.74667 55.2365 5.8C55.2232 5.84667 55.2065 5.90667 55.1865 5.98C55.1732 6.04667 55.1598 6.12 55.1465 6.2C55.1332 6.27333 55.1265 6.34 55.1265 6.4C55.1265 6.44667 55.1265 6.49333 55.1265 6.54C55.1265 6.58 55.1232 6.62 55.1165 6.66L55.0965 6.94L55.0365 7.32C55.0365 7.38667 55.0365 7.46 55.0365 7.54C55.0365 7.61333 55.0332 7.68333 55.0265 7.75V7.98C54.9865 8.00667 54.9532 8.02 54.9265 8.02C54.8532 8.03333 54.7998 8.04667 54.7665 8.06C54.7398 8.07333 54.6865 8.07667 54.6065 8.07C54.5332 8.06333 54.4365 8.06333 54.3165 8.07C54.1965 8.08333 54.0998 8.08333 54.0265 8.07C53.9532 8.05667 53.9165 8.04667 53.9165 8.04C53.9165 8.04 53.9165 8.02333 53.9165 7.99C53.9165 7.96333 53.9165 7.92333 53.9165 7.87C53.9232 7.81 53.9265 7.75 53.9265 7.69C53.9265 7.62333 53.9265 7.56 53.9265 7.5C53.9332 7.44 53.9365 7.39333 53.9365 7.36C53.9365 7.24 53.9332 7.14 53.9265 7.06C53.9198 6.98 53.9165 6.88 53.9165 6.76C53.9165 6.66 53.9132 6.58 53.9065 6.52C53.9065 6.45333 53.9032 6.37 53.8965 6.27C53.8965 6.21667 53.8998 6.15 53.9065 6.07C53.9132 5.98333 53.9165 5.89333 53.9165 5.8C53.9165 5.68667 53.9132 5.57667 53.9065 5.47C53.9065 5.36333 53.9065 5.28333 53.9065 5.23C53.8998 5.11667 53.8965 5.01 53.8965 4.91C53.8965 4.80333 53.9032 4.69667 53.9165 4.59ZM59.6358 4.37C59.6824 4.35667 59.7391 4.33667 59.8058 4.31C59.8724 4.28333 59.9391 4.27 60.0058 4.27C60.0924 4.27 60.1724 4.27 60.2458 4.27C60.3191 4.26333 60.3991 4.26 60.4858 4.26C60.5524 4.26 60.6158 4.26333 60.6758 4.27C60.7424 4.27 60.8024 4.28 60.8558 4.3C60.8691 4.3 60.8858 4.30333 60.9058 4.31C60.9258 4.31667 60.9524 4.33667 60.9858 4.37C61.0524 4.39 61.1158 4.42333 61.1758 4.47C61.2358 4.51667 61.2891 4.57333 61.3358 4.64C61.3891 4.70667 61.4358 4.77667 61.4758 4.85C61.5224 4.91667 61.5624 4.98333 61.5958 5.05C61.6291 5.10333 61.6491 5.17333 61.6558 5.26C61.6691 5.34667 61.6858 5.41667 61.7058 5.47C61.7058 5.56333 61.7091 5.65333 61.7158 5.74C61.7291 5.82667 61.7358 5.91667 61.7358 6.01C61.7358 6.16333 61.7324 6.31 61.7258 6.45C61.7191 6.59 61.7158 6.73667 61.7158 6.89L61.6958 7.22C61.6958 7.24667 61.6824 7.29333 61.6558 7.36C61.6291 7.42667 61.6124 7.47667 61.6058 7.51C61.5858 7.57667 61.5591 7.65667 61.5258 7.75C61.4924 7.83667 61.4691 7.88667 61.4558 7.9C61.4224 7.93333 61.3991 7.96333 61.3858 7.99C61.3724 8.01667 61.3591 8.04333 61.3458 8.07C61.3391 8.09667 61.3258 8.12 61.3058 8.14C61.2924 8.16 61.2658 8.18 61.2258 8.2C61.1924 8.21333 61.1524 8.23333 61.1058 8.26C61.0591 8.29333 61.0158 8.32333 60.9758 8.35C60.9424 8.36333 60.9258 8.37333 60.9258 8.38C60.9258 8.39333 60.9024 8.40667 60.8558 8.42L60.6758 8.46C60.5958 8.47333 60.5291 8.47667 60.4758 8.47C60.4291 8.46333 60.3758 8.46 60.3158 8.46C60.1291 8.46 59.9424 8.42333 59.7558 8.35C59.6958 8.35 59.6358 8.33667 59.5758 8.31C59.5224 8.28333 59.4824 8.25333 59.4558 8.22C59.4224 8.19333 59.3891 8.16333 59.3558 8.13C59.3224 8.10333 59.2891 8.07333 59.2558 8.04C59.2024 7.98 59.1591 7.92 59.1258 7.86C59.0924 7.8 59.0591 7.73667 59.0258 7.67C58.9924 7.59667 58.9558 7.52333 58.9158 7.45C58.8758 7.37 58.8491 7.28333 58.8358 7.19C58.8224 7.03667 58.8091 6.89667 58.7958 6.77C58.7891 6.64333 58.7858 6.51667 58.7858 6.39V5.98C58.7791 5.96667 58.7758 5.94 58.7758 5.9C58.7758 5.86 58.7791 5.83333 58.7858 5.82C58.7858 5.78667 58.7858 5.75333 58.7858 5.72C58.7924 5.68 58.7991 5.64333 58.8058 5.61C58.8124 5.55667 58.8158 5.50333 58.8158 5.45C58.8158 5.39667 58.8324 5.34333 58.8658 5.29C58.8591 5.30333 58.8624 5.29333 58.8758 5.26C58.8958 5.22 58.9158 5.18 58.9358 5.14C58.9558 5.09333 58.9724 5.05333 58.9858 5.02C58.9991 4.98667 59.0058 4.97333 59.0058 4.98L59.0758 4.85C59.0958 4.83 59.1158 4.80667 59.1358 4.78C59.1558 4.75333 59.1824 4.72333 59.2158 4.69C59.2558 4.65667 59.3058 4.61333 59.3658 4.56C59.4324 4.50667 59.5224 4.44333 59.6358 4.37ZM60.3658 6.03C60.3391 6.03 60.3124 6.04333 60.2858 6.07C60.2658 6.09667 60.2524 6.12 60.2458 6.14C60.1991 6.24 60.1758 6.32333 60.1758 6.39C60.1758 6.57 60.2391 6.69 60.3658 6.75C60.3991 6.75 60.4258 6.74 60.4458 6.72C60.4724 6.69333 60.4858 6.66667 60.4858 6.64C60.4858 6.57333 60.4924 6.49667 60.5058 6.41C60.5258 6.32333 60.5191 6.23333 60.4858 6.14C60.4524 6.10667 60.4324 6.08 60.4258 6.06C60.4191 6.04 60.3991 6.03 60.3658 6.03ZM64.6279 7.19C64.6279 7.20333 64.6312 7.21667 64.6379 7.23C64.6446 7.24333 64.6512 7.26 64.6579 7.28C64.6646 7.29333 64.6746 7.30667 64.6879 7.32C64.7012 7.31333 64.7046 7.29667 64.6979 7.27C64.6979 7.23667 64.7046 7.20333 64.7179 7.17L64.8779 6.7L64.9579 6.54C64.9912 6.48 65.0212 6.41667 65.0479 6.35C65.0746 6.28333 65.1012 6.2 65.1279 6.1C65.1412 6.07333 65.1479 6.04667 65.1479 6.02C65.1546 5.99333 65.1646 5.96333 65.1779 5.93C65.1912 5.89667 65.2046 5.86667 65.2179 5.84C65.2312 5.80667 65.2412 5.78333 65.2479 5.77L65.3279 5.45H65.8779C65.9379 5.45 65.9712 5.45667 65.9779 5.47C65.9846 5.47667 66.0046 5.51333 66.0379 5.58C66.0379 5.61333 66.0512 5.65 66.0779 5.69C66.1046 5.72333 66.1346 5.77333 66.1679 5.84C66.2012 5.93333 66.2346 6.03 66.2679 6.13C66.3079 6.22333 66.3612 6.31667 66.4279 6.41C66.4546 6.46333 66.4979 6.57333 66.5579 6.74C66.6179 6.90667 66.6846 7.05667 66.7579 7.19C66.7846 7.25667 66.8112 7.30333 66.8379 7.33C66.8712 7.31667 66.8879 7.3 66.8879 7.28C66.8879 7.25333 66.9046 7.22333 66.9379 7.19C66.9712 7.09667 67.0046 7.00667 67.0379 6.92C67.0779 6.82667 67.1046 6.72333 67.1179 6.61C67.1446 6.51667 67.1779 6.42 67.2179 6.32C67.2579 6.22 67.2946 6.12333 67.3279 6.03C67.3879 5.91 67.4412 5.79667 67.4879 5.69C67.5346 5.57667 67.5712 5.45333 67.5979 5.32C67.6446 5.2 67.6679 5.11667 67.6679 5.07C67.7012 5.00333 67.7246 4.94 67.7379 4.88C67.7512 4.82 67.7646 4.77333 67.7779 4.74C67.8112 4.70667 67.8246 4.68667 67.8179 4.68C67.8179 4.67333 67.8346 4.67 67.8679 4.67C67.8879 4.66333 67.9079 4.66333 67.9279 4.67C67.9479 4.67 67.9746 4.67 68.0079 4.67C68.0679 4.66333 68.1412 4.66333 68.2279 4.67C68.3212 4.67 68.3946 4.67 68.4479 4.67C68.4946 4.67 68.5712 4.67 68.6779 4.67C68.7912 4.66333 68.8846 4.66333 68.9579 4.67C68.9646 4.68333 68.9612 4.7 68.9479 4.72C68.9412 4.74 68.9346 4.76667 68.9279 4.8L68.6279 5.5C68.5879 5.57333 68.5512 5.65333 68.5179 5.74C68.4846 5.82 68.4512 5.89667 68.4179 5.97C68.3712 6.07667 68.3179 6.18333 68.2579 6.29C68.1979 6.39 68.1412 6.51 68.0879 6.65C68.0612 6.72333 68.0312 6.79333 67.9979 6.86C67.9712 6.92667 67.9412 6.99333 67.9079 7.06C67.8612 7.12667 67.8246 7.18667 67.7979 7.24C67.7712 7.29333 67.7412 7.35667 67.7079 7.43L67.6479 7.57C67.6079 7.67 67.5646 7.77 67.5179 7.87C67.4712 7.96333 67.4312 8.06 67.3979 8.16C67.3646 8.16 67.3412 8.15667 67.3279 8.15C67.3146 8.15 67.2946 8.15667 67.2679 8.17C67.2412 8.17 67.2212 8.17 67.2079 8.17C67.1946 8.17667 67.1579 8.17333 67.0979 8.16H66.9979C66.9646 8.16 66.9279 8.15667 66.8879 8.15C66.8546 8.15 66.8146 8.15 66.7679 8.15C66.7012 8.15 66.6446 8.15 66.5979 8.15C66.5579 8.15667 66.5212 8.16 66.4879 8.16C66.4812 8.16 66.4679 8.14 66.4479 8.1C66.4279 8.06 66.4079 8.01667 66.3879 7.97C66.3679 7.91667 66.3446 7.86667 66.3179 7.82C66.2979 7.77333 66.2846 7.74333 66.2779 7.73L66.1079 7.37L66.0079 7.18C65.9746 7.10667 65.9379 7.04 65.8979 6.98C65.8646 6.91333 65.8246 6.83333 65.7779 6.74C65.7579 6.70667 65.7379 6.67333 65.7179 6.64C65.7046 6.6 65.6946 6.59 65.6879 6.61L65.6279 6.8C65.6279 6.83333 65.6079 6.88333 65.5679 6.95C65.5346 7.01 65.5146 7.05667 65.5079 7.09L65.3579 7.55C65.3446 7.59 65.3212 7.65 65.2879 7.73C65.2546 7.80333 65.2279 7.85667 65.2079 7.89L65.1679 8.04C65.1479 8.11333 65.1312 8.15333 65.1179 8.16C65.0446 8.16 64.9812 8.15667 64.9279 8.15C64.8812 8.15 64.8279 8.14667 64.7679 8.14L64.4279 8.15C64.3546 8.15 64.2746 8.14 64.1879 8.12C64.1012 8.10667 64.0412 8.1 64.0079 8.1C63.9946 8.09333 63.9879 8.08333 63.9879 8.07C63.9879 8.06333 63.9812 8.04667 63.9679 8.02C63.9212 7.94667 63.8746 7.88333 63.8279 7.83C63.7879 7.77 63.7512 7.70667 63.7179 7.64C63.6579 7.56667 63.6146 7.48 63.5879 7.38C63.5612 7.28 63.5212 7.19333 63.4679 7.12C63.4346 7.04 63.3879 6.95333 63.3279 6.86C63.2746 6.76667 63.2246 6.67333 63.1779 6.58C63.1046 6.44667 63.0479 6.34333 63.0079 6.27C62.9679 6.19 62.9412 6.12333 62.9279 6.07L62.6979 5.58C62.6646 5.51333 62.6312 5.44 62.5979 5.36C62.5646 5.27333 62.5312 5.19333 62.4979 5.12C62.4779 5.10667 62.4579 5.08 62.4379 5.04C62.4179 4.99333 62.3946 4.94667 62.3679 4.9C62.3479 4.84667 62.3246 4.79333 62.2979 4.74C62.2779 4.68667 62.2579 4.64333 62.2379 4.61C62.2246 4.59667 62.2146 4.58667 62.2079 4.58C62.2079 4.56667 62.2046 4.55333 62.1979 4.54C62.1912 4.52667 62.1879 4.51333 62.1879 4.5C62.1879 4.49333 62.2012 4.49 62.2279 4.49C62.2612 4.48333 62.2946 4.48 62.3279 4.48C62.4012 4.46667 62.4812 4.46667 62.5679 4.48C62.6612 4.49333 62.7446 4.49333 62.8179 4.48H63.1279C63.1746 4.48 63.2279 4.48 63.2879 4.48C63.3479 4.48 63.3946 4.48333 63.4279 4.49C63.4546 4.56333 63.4946 4.64667 63.5479 4.74C63.6012 4.83333 63.6346 4.89667 63.6479 4.93L63.7879 5.27C63.8079 5.31667 63.8312 5.39667 63.8579 5.51C63.8912 5.62333 63.9446 5.74333 64.0179 5.87C64.0646 5.97 64.1112 6.08667 64.1579 6.22C64.2046 6.34667 64.2579 6.44 64.3179 6.5C64.3379 6.52667 64.3612 6.57333 64.3879 6.64C64.4212 6.7 64.4512 6.76667 64.4779 6.84C64.5046 6.90667 64.5312 6.97333 64.5579 7.04C64.5846 7.10667 64.6079 7.15667 64.6279 7.19Z" fill="white"/>
</svg>
